<svg width="165" height="97" viewBox="0 0 165 97" fill="none" xmlns="http://www.w3.org/2000/svg">
<path d="M3.40038 95.4926C2.61748 95.5143 1.81744 95.517 1 95.5L3.40038 95.4926C25.6032 94.8772 34.017 78.9721 34.5 64C34.5 44 52.5 32.5 66 32.5H132C149.888 32.5 164.32 17.6857 164.498 0.816394L164.5 0.5C164.5 0.605543 164.499 0.711009 164.498 0.816394L164 95L3.40038 95.4926Z" fill="white"/>
<path d="M1 95.5C25 96 34 79.5 34.5 64C34.5 44 52.5 32.5 66 32.5H132C150 32.5 164.5 17.5 164.5 0.5L164 95L1 95.5Z" stroke="white"/>
</svg>
