<svg width="29" height="28" viewBox="0 0 29 28" fill="none" xmlns="http://www.w3.org/2000/svg">
<rect x="0.5" y="0.5" width="28" height="27" rx="8.5" stroke="#111111"/>
<path d="M18.8639 14.056C18.6544 13.6285 18.063 13.2684 17.2771 13.876C16.2067 14.7311 14.5 14.7311 14.5 14.7311C14.5 14.7311 12.7933 14.7311 11.7229 13.876C10.937 13.2684 10.3456 13.6285 10.1361 14.056C9.76179 14.8061 10.181 15.1736 11.1316 15.7812C11.9475 16.3063 13.0628 16.5013 13.7814 16.5763L13.1826 17.1764C12.3293 18.024 11.5059 18.8416 10.9445 19.4117C10.6076 19.7567 10.6076 20.3043 10.9445 20.6268L11.0493 20.7468C11.3861 21.0844 11.94 21.0844 12.2769 20.7468L14.5 18.5116C15.3608 19.3592 16.1767 20.1768 16.7456 20.7468C17.0824 21.0844 17.6289 21.0844 17.9732 20.7468L18.0705 20.6268C18.4148 20.3043 18.4148 19.7567 18.0705 19.4117L15.8399 17.1764L15.2485 16.5688C15.9596 16.5013 17.06 16.2988 17.8684 15.7812C18.819 15.1736 19.2382 14.8061 18.8639 14.056ZM14.5 7.92774C15.533 7.92774 16.3713 8.76785 16.3713 9.79547C16.3713 10.8306 15.533 11.6632 14.5 11.6632C13.467 11.6632 12.6287 10.8306 12.6287 9.79547C12.6287 8.76785 13.467 7.92774 14.5 7.92774ZM14.5 13.5909C16.5959 13.5909 18.2876 11.8957 18.2876 9.79547C18.2876 8.78885 17.8885 7.82346 17.1782 7.11167C16.4679 6.39988 15.5045 6 14.5 6C13.4955 6 12.5321 6.39988 11.8218 7.11167C11.1115 7.82346 10.7124 8.78885 10.7124 9.79547C10.7124 11.8957 12.4041 13.5909 14.5 13.5909Z" fill="#111111"/>
</svg>
