<svg width="29" height="28" viewBox="0 0 29 28" fill="none" xmlns="http://www.w3.org/2000/svg">
<rect x="0.5" y="0.5" width="28" height="27" rx="8.5" stroke="#111111"/>
<g clip-path="url(#clip0_71_93)">
<path d="M12.8852 15.8558L12.6371 19.1131C12.9921 19.1131 13.1458 18.9708 13.3302 18.7999L14.9946 17.3153L18.4433 19.6725C19.0758 20.0015 19.5214 19.8283 19.6921 19.1294L21.9558 9.22911L21.9564 9.22853C22.1571 8.35586 21.6183 8.01461 21.0021 8.2287L7.69581 12.9834C6.78769 13.3124 6.80144 13.7849 7.54144 13.999L10.9433 14.9866L18.8452 10.3719C19.2171 10.142 19.5552 10.2692 19.2771 10.499L12.8852 15.8558Z" fill="#111111"/>
</g>
<defs>
<clipPath id="clip0_71_93">
<rect width="15" height="14" fill="white" transform="translate(7 7)"/>
</clipPath>
</defs>
</svg>
